<?xml version="1.0" encoding="utf-8"?>
<!-- Generator: Adobe Illustrator 23.0.0, SVG Export Plug-In . SVG Version: 6.00 Build 0)  -->
<svg version="1.1" id="Layer_1" xmlns="http://www.w3.org/2000/svg" xmlns:xlink="http://www.w3.org/1999/xlink" x="0px" y="0px"
	 viewBox="0 0 24 24" style="enable-background:new 0 0 24 24;" xml:space="preserve">
<style type="text/css">
	.st0{fill:#25A9E0;}
</style>
<g>
	<path class="st0" d="M3.6,16.9c0,0.9,0.4,1.7,1,2.2V21c0,0.6,0.4,1,1,1h1c0.6,0,1-0.4,1-1v-1h8.2v1c0,0.6,0.4,1,1,1h1
		c0.6,0,1-0.4,1-1v-1.8c0.6-0.5,1-1.3,1-2.2V6.7c0-3.6-3.7-4.1-8.2-4.1c-4.5,0-8.2,0.5-8.2,4.1V16.9z M7.2,18
		c-0.8,0-1.5-0.7-1.5-1.5c0-0.8,0.7-1.5,1.5-1.5c0.8,0,1.5,0.7,1.5,1.5C8.7,17.2,8,18,7.2,18L7.2,18z M16.4,18
		c-0.8,0-1.5-0.7-1.5-1.5c0-0.8,0.7-1.5,1.5-1.5c0.8,0,1.5,0.7,1.5,1.5C17.9,17.2,17.2,18,16.4,18L16.4,18z M17.9,11.8H5.7V6.7h12.2
		V11.8z M17.9,11.8"/>
</g>
</svg>
