<?xml version="1.0" encoding="utf-8"?>
<!-- Generator: Adobe Illustrator 23.0.0, SVG Export Plug-In . SVG Version: 6.00 Build 0)  -->
<svg version="1.1" id="Layer_1" xmlns="http://www.w3.org/2000/svg" xmlns:xlink="http://www.w3.org/1999/xlink" x="0px" y="0px"
	 viewBox="0 0 24 24" style="enable-background:new 0 0 24 24;" xml:space="preserve">
<style type="text/css">
	.st0{fill:#FAAA39;}
</style>
<g>
	<g>
		<path class="st0" d="M11.6,2.8c-5.2,0-9.4,4.2-9.4,9.4s4.2,9.4,9.4,9.4c5.2,0,9.4-4.2,9.4-9.4S16.8,2.8,11.6,2.8z M16.9,16.7
			l-0.8-0.8l-0.9,0.9l0.8,0.8c-1.1,0.9-2.4,1.5-3.9,1.6V18h-1.2v1.1C9.5,19,8.1,18.5,7,17.5l0.8-0.8l-0.9-0.9l-0.8,0.8
			c-0.9-1.1-1.5-2.4-1.6-3.9h1.1v-1.2H4.6c0.1-1.4,0.7-2.8,1.6-3.9l0.8,0.8l0.9-0.9L7,6.8c1.1-0.9,2.4-1.5,3.9-1.6v1h1.2v-1
			c1.4,0.1,2.8,0.7,3.9,1.6l-0.7,0.7l0.9,0.9l0.7-0.7c0.9,1.1,1.5,2.4,1.6,3.9h-1.1v1.2h1.1C18.3,14.2,17.8,15.6,16.9,16.7z"/>
		<polygon class="st0" points="10.9,8.7 10.9,11.5 6.9,11.5 6.9,12.8 12.2,12.8 12.1,8.7 		"/>
	</g>
</g>
</svg>
