<?xml version="1.0" encoding="utf-8"?>
<!-- Generator: Adobe Illustrator 23.0.0, SVG Export Plug-In . SVG Version: 6.00 Build 0)  -->
<svg version="1.1" id="Layer_1" xmlns="http://www.w3.org/2000/svg" xmlns:xlink="http://www.w3.org/1999/xlink" x="0px" y="0px"
	 viewBox="0 0 24 24" style="enable-background:new 0 0 24 24;" xml:space="preserve">
<style type="text/css">
	.st0{fill:#3BB44A;}
</style>
<g>
	<g>
		<path class="st0" d="M20.3,17.5l-2.8-2.8c-0.6-0.6-1.5-0.5-2,0l-1.4,1.4c-0.1,0-0.2-0.1-0.3-0.2c-0.9-0.5-2.1-1.2-3.4-2.4
			c-1.3-1.3-2-2.5-2.4-3.4C7.9,10,7.9,10,7.9,9.9l0.9-0.9l0.5-0.5c0.6-0.6,0.6-1.5,0-2L6.5,3.6C6,3.1,5,3.1,4.5,3.7L3.7,4.5l0,0
			C3.4,4.8,3.2,5.2,3.1,5.6C2.9,6,2.8,6.4,2.8,6.8c-0.4,3,1,5.8,4.8,9.6c5.2,5.2,9.4,4.8,9.6,4.8c0.4,0,0.8-0.1,1.2-0.3
			c0.4-0.2,0.8-0.4,1.1-0.6l0,0l0.8-0.8C20.9,18.9,20.9,18,20.3,17.5L20.3,17.5z M20.3,17.5"/>
	</g>
</g>
</svg>
