<?xml version="1.0" encoding="utf-8"?>
<!-- Generator: Adobe Illustrator 23.0.0, SVG Export Plug-In . SVG Version: 6.00 Build 0)  -->
<svg version="1.1" id="Layer_1" xmlns="http://www.w3.org/2000/svg" xmlns:xlink="http://www.w3.org/1999/xlink" x="0px" y="0px"
	 viewBox="0 0 24 24" style="enable-background:new 0 0 24 24;" xml:space="preserve">
<style type="text/css">
	.st0{fill:#EF5126;}
</style>
<path class="st0" d="M12,1.5c-3.9,0-7,3.1-7,7c0,1.2,0.3,2.3,0.8,3.3l5.8,10.4c0.1,0.1,0.2,0.2,0.4,0.2s0.3-0.1,0.4-0.2l5.8-10.5
	c0.5-1,0.8-2.2,0.8-3.3C19,4.6,15.8,1.5,12,1.5z M12,12c-1.9,0-3.5-1.6-3.5-3.5S10,5,12,5s3.5,1.6,3.5,3.5S13.9,12,12,12z"/>
</svg>
