<?xml version="1.0" encoding="utf-8"?>
<!-- Generator: Adobe Illustrator 22.1.0, SVG Export Plug-In . SVG Version: 6.00 Build 0)  -->
<svg version="1.1" id="Layer_1" xmlns="http://www.w3.org/2000/svg" xmlns:xlink="http://www.w3.org/1999/xlink" x="0px" y="0px"
	 viewBox="0 0 21 21" style="enable-background:new 0 0 21 21;" xml:space="preserve">
<style type="text/css">
	.st0{fill:#FAAA39;}
</style>
<g>
	<path class="st0" d="M10.3,0.3C4.8,0.3,0.2,4.9,0.2,10.5s4.5,10.1,10.1,10.1S20.5,16,20.5,10.5S15.9,0.3,10.3,0.3L10.3,0.3z
		 M10.3,18.7C5.8,18.7,2,15,2,10.5s3.7-8.3,8.3-8.3s8.3,3.7,8.3,8.3S14.9,18.7,10.3,18.7L10.3,18.7z"/>
	<path class="st0" d="M10.3,4.6c-0.7,0-1.2,0.6-1.2,1.2C9.1,6.5,9.7,7,10.3,7c0.7,0,1.2-0.6,1.2-1.2C11.6,5.2,11,4.6,10.3,4.6
		L10.3,4.6z"/>
	<path class="st0" d="M10.3,8.9c-0.5,0-0.9,0.4-0.9,0.9v5.5c0,0.5,0.4,0.9,0.9,0.9s0.9-0.4,0.9-0.9V9.8C11.3,9.3,10.8,8.9,10.3,8.9
		L10.3,8.9z"/>
</g>
</svg>
